<svg xmlns="http://www.w3.org/2000/svg" viewBox="0 0 96 96">
  <defs>
    <linearGradient id="bg" x1="0" y1="0" x2="96" y2="96" gradientUnits="userSpaceOnUse">
      <stop offset="0%" stop-color="#6366f1" />
      <stop offset="55%" stop-color="#8b5cf6" />
      <stop offset="100%" stop-color="#06b6d4" />
    </linearGradient>
    <linearGradient id="bar" x1="0" y1="80" x2="0" y2="20" gradientUnits="userSpaceOnUse">
      <stop offset="0%" stop-color="rgba(255,255,255,0.55)" />
      <stop offset="100%" stop-color="rgba(255,255,255,1)" />
    </linearGradient>
    <linearGradient id="spark" x1="20" y1="60" x2="78" y2="22" gradientUnits="userSpaceOnUse">
      <stop offset="0%" stop-color="#fef9c3" />
      <stop offset="100%" stop-color="#fde047" />
    </linearGradient>
    <radialGradient id="glow" cx="0.7" cy="0.25" r="0.85">
      <stop offset="0%" stop-color="rgba(255,255,255,0.35)" />
      <stop offset="100%" stop-color="rgba(255,255,255,0)" />
    </radialGradient>
  </defs>
  <rect x="4" y="4" width="88" height="88" rx="26" fill="url(#bg)" />
  <rect x="4" y="4" width="88" height="88" rx="26" fill="url(#glow)" />
  <rect x="4" y="4" width="88" height="88" rx="26" fill="none" stroke="rgba(255,255,255,0.18)" stroke-width="1" />
  <rect x="22" y="58" width="10" height="20" rx="3" fill="url(#bar)" opacity="0.85" />
  <rect x="38" y="46" width="10" height="32" rx="3" fill="url(#bar)" opacity="0.92" />
  <rect x="54" y="34" width="10" height="44" rx="3" fill="url(#bar)" />
  <path d="M22 56 L40 42 L54 50 L72 28" fill="none" stroke="url(#spark)" stroke-width="3.4" stroke-linecap="round" stroke-linejoin="round" />
  <path d="M64 26 L74 24 L72 34 Z" fill="url(#spark)" stroke="url(#spark)" stroke-width="2" stroke-linejoin="round" />
  <circle cx="22" cy="56" r="2.6" fill="#fef9c3" />
  <circle cx="40" cy="42" r="2.6" fill="#fef9c3" />
  <circle cx="54" cy="50" r="2.6" fill="#fef9c3" />
</svg>
